# Blender v2.82 (sub 7) OBJ File: ''
# www.blender.org
o Table_top_Cube
v 1.591349 0.924711 -0.798163
v 1.591349 0.924711 1.201837
v -1.858866 0.924711 -0.798163
v -1.858866 0.924711 1.201837
v -1.682333 0.942710 -0.467038
v -1.682333 0.942710 -0.589445
v -1.577243 0.942710 -0.467038
v -1.577243 0.942710 -0.589445
v 1.574091 1.023759 -0.780906
v 1.591349 1.006502 -0.798163
v 1.574091 1.023759 1.184579
v 1.591349 1.006502 1.201837
v -1.841608 1.023759 -0.780906
v -1.858866 1.006502 -0.798163
v -1.841608 1.023759 1.184579
v -1.858866 1.006502 1.201837
vt 0.581441 0.750000
vt 0.375000 1.000000
vt 0.375000 0.750000
vt 0.581441 0.000000
vt 0.375000 0.250000
vt 0.375000 0.000000
vt 0.375000 0.500000
vt 0.125000 0.750000
vt 0.125000 0.500000
vt 0.873749 0.502157
vt 0.626250 0.747843
vt 0.626250 0.502157
vt 0.581441 0.500000
vt 0.875000 0.500000
vt 0.625000 0.750000
vt 0.625000 0.500000
vt 0.875000 0.750000
vt 0.625000 0.750000
vt 0.873749 0.747843
vt 0.625000 0.500000
vt 0.875000 0.500000
vt 0.581441 0.250000
vt 0.581441 1.000000
vt 0.875000 0.750000
vn 0.0000 0.0000 1.0000
vn -1.0000 0.0000 0.0000
vn 0.0000 -1.0000 0.0000
vn 0.0000 1.0000 0.0000
vn 1.0000 0.0000 0.0000
vn 0.0000 0.7071 0.7071
vn 0.7071 0.7071 0.0000
vn -0.7071 0.7071 0.0000
vn 0.0000 0.7071 -0.7071
vn 0.0000 0.0000 -1.0000
s off
f 12/1/1 4/2/1 2/3/1
f 16/4/2 3/5/2 4/6/2
f 1/7/3 4/8/3 3/9/3
f 13/10/4 11/11/4 9/12/4
f 10/13/5 2/3/5 1/7/5
f 6/14/4 7/15/4 8/16/4
f 11/11/6 16/17/6 12/18/6
f 11/11/7 10/13/7 9/12/7
f 13/10/8 16/17/8 15/19/8
f 13/10/9 10/20/9 14/21/9
f 14/22/10 1/7/10 3/5/10
f 12/1/1 16/23/1 4/2/1
f 16/4/2 14/22/2 3/5/2
f 1/7/3 2/3/3 4/8/3
f 13/10/4 15/19/4 11/11/4
f 10/13/5 12/1/5 2/3/5
f 6/14/4 5/24/4 7/15/4
f 11/11/6 15/19/6 16/17/6
f 11/11/7 12/1/7 10/13/7
f 13/10/8 14/21/8 16/17/8
f 13/10/9 9/12/9 10/20/9
f 14/22/10 10/13/10 1/7/10
o Cube_Cube.002
v -1.683755 -1.045166 -0.441338
v -1.683755 0.954834 -0.441338
v -1.683755 -1.045166 -0.619895
v -1.683755 0.954834 -0.619895
v -1.517574 -1.045166 -0.441338
v -1.517574 0.954834 -0.441338
v -1.517574 -1.045166 -0.619895
v -1.517574 0.954834 -0.619895
vt 0.625000 0.000000
vt 0.375000 0.250000
vt 0.375000 0.000000
vt 0.625000 0.250000
vt 0.375000 0.500000
vt 0.625000 0.500000
vt 0.375000 0.750000
vt 0.625000 0.750000
vt 0.375000 1.000000
vt 0.125000 0.750000
vt 0.125000 0.500000
vt 0.875000 0.500000
vt 0.625000 1.000000
vt 0.875000 0.750000
vn -1.0000 0.0000 0.0000
vn 0.0000 0.0000 -1.0000
vn 1.0000 0.0000 0.0000
vn 0.0000 0.0000 1.0000
vn 0.0000 -1.0000 0.0000
vn 0.0000 1.0000 0.0000
s off
f 18/25/11 19/26/11 17/27/11
f 20/28/12 23/29/12 19/26/12
f 24/30/13 21/31/13 23/29/13
f 22/32/14 17/33/14 21/31/14
f 23/29/15 17/34/15 19/35/15
f 20/36/16 22/32/16 24/30/16
f 18/25/11 20/28/11 19/26/11
f 20/28/12 24/30/12 23/29/12
f 24/30/13 22/32/13 21/31/13
f 22/32/14 18/37/14 17/33/14
f 23/29/15 21/31/15 17/34/15
f 20/36/16 18/38/16 22/32/16
o Cube.001_Cube.003
v -1.683755 -1.045166 1.062181
v -1.683755 0.954834 1.062181
v -1.683755 -1.045166 0.883624
v -1.683755 0.954834 0.883624
v -1.517574 -1.045166 1.062181
v -1.517574 0.954834 1.062181
v -1.517574 -1.045166 0.883624
v -1.517574 0.954834 0.883624
vt 0.625000 0.000000
vt 0.375000 0.250000
vt 0.375000 0.000000
vt 0.625000 0.250000
vt 0.375000 0.500000
vt 0.625000 0.500000
vt 0.375000 0.750000
vt 0.625000 0.750000
vt 0.375000 1.000000
vt 0.125000 0.750000
vt 0.125000 0.500000
vt 0.875000 0.500000
vt 0.625000 1.000000
vt 0.875000 0.750000
vn -1.0000 0.0000 0.0000
vn 0.0000 0.0000 -1.0000
vn 1.0000 0.0000 0.0000
vn 0.0000 0.0000 1.0000
vn 0.0000 -1.0000 0.0000
vn 0.0000 1.0000 0.0000
s off
f 26/39/17 27/40/17 25/41/17
f 28/42/18 31/43/18 27/40/18
f 32/44/19 29/45/19 31/43/19
f 30/46/20 25/47/20 29/45/20
f 31/43/21 25/48/21 27/49/21
f 28/50/22 30/46/22 32/44/22
f 26/39/17 28/42/17 27/40/17
f 28/42/18 32/44/18 31/43/18
f 32/44/19 30/46/19 29/45/19
f 30/46/20 26/51/20 25/47/20
f 31/43/21 29/45/21 25/48/21
f 28/50/22 26/52/22 30/46/22
o Cube.003_Cube.005
v 1.258840 -1.045166 -0.441338
v 1.258840 0.954834 -0.441338
v 1.258840 -1.045166 -0.619895
v 1.258840 0.954834 -0.619895
v 1.425021 -1.045166 -0.441338
v 1.425021 0.954834 -0.441338
v 1.425021 -1.045166 -0.619895
v 1.425021 0.954834 -0.619895
vt 0.625000 0.000000
vt 0.375000 0.250000
vt 0.375000 0.000000
vt 0.625000 0.250000
vt 0.375000 0.500000
vt 0.625000 0.500000
vt 0.375000 0.750000
vt 0.625000 0.750000
vt 0.375000 1.000000
vt 0.125000 0.750000
vt 0.125000 0.500000
vt 0.875000 0.500000
vt 0.625000 1.000000
vt 0.875000 0.750000
vn -1.0000 0.0000 0.0000
vn 0.0000 0.0000 -1.0000
vn 1.0000 0.0000 0.0000
vn 0.0000 0.0000 1.0000
vn 0.0000 -1.0000 0.0000
vn 0.0000 1.0000 0.0000
s off
f 34/53/23 35/54/23 33/55/23
f 36/56/24 39/57/24 35/54/24
f 40/58/25 37/59/25 39/57/25
f 38/60/26 33/61/26 37/59/26
f 39/57/27 33/62/27 35/63/27
f 36/64/28 38/60/28 40/58/28
f 34/53/23 36/56/23 35/54/23
f 36/56/24 40/58/24 39/57/24
f 40/58/25 38/60/25 37/59/25
f 38/60/26 34/65/26 33/61/26
f 39/57/27 37/59/27 33/62/27
f 36/64/28 34/66/28 38/60/28
o Cube.002_Cube.004
v 1.258840 -1.045166 1.062181
v 1.258840 0.954834 1.062181
v 1.258840 -1.045166 0.883624
v 1.258840 0.954834 0.883624
v 1.425021 -1.045166 1.062181
v 1.425021 0.954834 1.062181
v 1.425021 -1.045166 0.883624
v 1.425021 0.954834 0.883624
vt 0.625000 0.000000
vt 0.375000 0.250000
vt 0.375000 0.000000
vt 0.625000 0.250000
vt 0.375000 0.500000
vt 0.625000 0.500000
vt 0.375000 0.750000
vt 0.625000 0.750000
vt 0.375000 1.000000
vt 0.125000 0.750000
vt 0.125000 0.500000
vt 0.875000 0.500000
vt 0.625000 1.000000
vt 0.875000 0.750000
vn -1.0000 0.0000 0.0000
vn 0.0000 0.0000 -1.0000
vn 1.0000 0.0000 0.0000
vn 0.0000 0.0000 1.0000
vn 0.0000 -1.0000 0.0000
vn 0.0000 1.0000 0.0000
s off
f 42/67/29 43/68/29 41/69/29
f 44/70/30 47/71/30 43/68/30
f 48/72/31 45/73/31 47/71/31
f 46/74/32 41/75/32 45/73/32
f 47/71/33 41/76/33 43/77/33
f 44/78/34 46/74/34 48/72/34
f 42/67/29 44/70/29 43/68/29
f 44/70/30 48/72/30 47/71/30
f 48/72/31 46/74/31 45/73/31
f 46/74/32 42/79/32 41/75/32
f 47/71/33 45/73/33 41/76/33
f 44/78/34 42/80/34 46/74/34
