# Blender v2.82 (sub 7) OBJ File: ''
# www.blender.org
mtllib untitled.mtl
o Cube
v 2.377043 0.394534 -1.326410
v 1.000000 -0.408124 -1.000000
v 3.034623 0.394534 1.000000
v 1.000000 -0.408124 1.000000
v -1.000000 0.394534 -1.000000
v -1.000000 -0.408124 -1.000000
v -1.440512 0.358091 2.109264
v -1.000000 -0.408124 1.000000
v 4.179780 0.394534 0.377412
v 4.023035 0.394534 0.066118
vt 0.625000 0.500000
vt 0.875000 0.500000
vt 0.875000 0.750000
vt 0.625000 0.750000
vt 0.625000 0.625000
vt 0.625000 0.562500
vt 0.375000 0.750000
vt 0.625000 1.000000
vt 0.375000 1.000000
vt 0.375000 0.000000
vt 0.625000 0.000000
vt 0.625000 0.250000
vt 0.375000 0.250000
vt 0.125000 0.500000
vt 0.375000 0.500000
vt 0.125000 0.750000
vn -0.0029 1.0000 0.0059
vn 0.1308 -0.6575 0.7420
vn -0.9733 -0.2129 -0.0854
vn 0.0000 -1.0000 0.0000
vn 0.3044 -0.9514 -0.0463
vn -0.0599 -0.1493 -0.9870
usemtl Material
s off
f 1/1/1 5/2/1 7/3/1 3/4/1 9/5/1 10/6/1
f 4/7/2 3/4/2 7/8/2 8/9/2
f 8/10/3 7/11/3 5/12/3 6/13/3
f 6/14/4 2/15/4 4/7/4 8/16/4
f 2/15/5 1/1/5 10/6/5 9/5/5 3/4/5 4/7/5
f 6/13/6 5/12/6 1/1/6 2/15/6
